<?xml version="1.0" encoding="UTF-8" standalone="no"?>
<svg
   width="1920"
   height="800"
   viewBox="0 0 1920 800"
   version="1.1"
   id="svg27"
   sodipodi:docname="ganesha.svg"
   inkscape:version="1.3.2 (091e20ef0f, 2023-11-25)"
   xmlns:inkscape="http://www.inkscape.org/namespaces/inkscape"
   xmlns:sodipodi="http://sodipodi.sourceforge.net/DTD/sodipodi-0.dtd"
   xmlns:xlink="http://www.w3.org/1999/xlink"
   xmlns="http://www.w3.org/2000/svg"
   xmlns:svg="http://www.w3.org/2000/svg">
  <sodipodi:namedview
     id="namedview29"
     pagecolor="#ffffff"
     bordercolor="#666666"
     borderopacity="1.0"
     inkscape:pageshadow="2"
     inkscape:pageopacity="0.0"
     inkscape:pagecheckerboard="0"
     showgrid="false"
     inkscape:zoom="0.43479783"
     inkscape:cx="780.82266"
     inkscape:cy="162.14432"
     inkscape:window-width="1920"
     inkscape:window-height="1011"
     inkscape:window-x="0"
     inkscape:window-y="0"
     inkscape:window-maximized="1"
     inkscape:current-layer="svg27"
     inkscape:showpageshadow="2"
     inkscape:deskcolor="#d1d1d1" />
  <defs
     id="defs16">
    <linearGradient
       id="linear-gradient"
       x1="-0.12800001"
       y1="0.054000001"
       x2="1.027"
       y2="1.028"
       gradientUnits="objectBoundingBox">
      <stop
         offset="0"
         stop-color="#8e0505"
         id="stop2" />
      <stop
         offset="0.251"
         stop-color="#ec5943"
         id="stop4" />
      <stop
         offset="0.596"
         stop-color="#fcb10c"
         id="stop6" />
      <stop
         offset="0.843"
         stop-color="#e39706"
         id="stop8" />
      <stop
         offset="1"
         stop-color="#e05004"
         id="stop10" />
    </linearGradient>
    <clipPath
       id="clip-Ganesha-logo">
      <rect
         width="1134"
         height="1262"
         id="rect13"
         x="0"
         y="0" />
    </clipPath>
    <linearGradient
       inkscape:collect="always"
       xlink:href="#linear-gradient"
       id="linearGradient1008"
       x1="-7893.002"
       y1="-321.2775"
       x2="-7100.0439"
       y2="-321.2775"
       gradientUnits="userSpaceOnUse" />
    <linearGradient
       inkscape:collect="always"
       xlink:href="#linear-gradient"
       id="linearGradient23"
       gradientUnits="userSpaceOnUse"
       x1="-98.949364"
       y1="41.744263"
       x2="793.91394"
       y2="794.68701"
       gradientTransform="scale(1.0472395,0.95489137)" />
  </defs>
  <g
     id="Ganesha-logo"
     clip-path="url(#clip-Ganesha-logo)"
     transform="matrix(0.76423269,0,0,0.76423269,525.96135,-85.017631)">
    <g
       id="Group_144"
       data-name="Group 144"
       transform="translate(159.959,161.771)">
      <path
         id="Path_923"
         data-name="Path 923"
         d="m -7550.829,-257.555 -82.093,-79.592 0.455,75.446 h -21.181 V -384.2 h 2.607 l 81.777,80.587 -0.3,-76.6 h 20.859 v 122.658 z m 153.155,-4.495 a 72.62,72.62 0 0 1 -13.382,-4.462 80.51,80.51 0 0 1 -11.659,-6.4 l -0.909,-0.609 9.5,-16.627 1.06,0.8 a 52.188,52.188 0 0 0 8.586,5.146 58.167,58.167 0 0 0 10.006,3.756 36.731,36.731 0 0 0 9.586,1.395 28.939,28.939 0 0 0 9.431,-1.613 17.9,17.9 0 0 0 7.646,-5.016 13.014,13.014 0 0 0 2.971,-8.952 11.9,11.9 0 0 0 -2.534,-7.725 24.321,24.321 0 0 0 -7.084,-5.857 73.036,73.036 0 0 0 -9.89,-4.63 c -3.621,-1.385 -7.35,-2.952 -11.077,-4.657 a 54.848,54.848 0 0 1 -10.682,-6.438 31.094,31.094 0 0 1 -8.208,-9.534 28.42,28.42 0 0 1 -3.18,-13.977 31.513,31.513 0 0 1 4.653,-17.222 33.141,33.141 0 0 1 12.809,-11.579 42.914,42.914 0 0 1 18.78,-4.6 h 0.037 a 67.161,67.161 0 0 1 21.359,3.012 76.864,76.864 0 0 1 15.642,7.214 l 0.9,0.562 -8.018,16.222 -1.061,-0.539 a 91.807,91.807 0 0 0 -13.075,-5.438 41.963,41.963 0 0 0 -13.039,-2.254 c -5.452,0 -9.8,1.209 -12.931,3.593 a 11.3,11.3 0 0 0 -4.564,9.594 10.526,10.526 0 0 0 3.105,7.567 29.232,29.232 0 0 0 8.594,5.978 c 3.626,1.734 7.487,3.412 11.477,4.988 a 94.824,94.824 0 0 1 10.569,4.6 42.3,42.3 0 0 1 9.6,6.647 28.355,28.355 0 0 1 6.828,9.9 37.252,37.252 0 0 1 2.487,14.419 33.113,33.113 0 0 1 -4.719,17.277 33.49,33.49 0 0 1 -13.629,12.485 c -5.884,3.049 -13.1,4.6 -21.441,4.6 a 65.011,65.011 0 0 1 -14.544,-1.625 z m -458.75,-2.761 a 58.725,58.725 0 0 1 -19.615,-12.132 53.377,53.377 0 0 1 -12.561,-18.357 59.553,59.553 0 0 1 -4.4,-22.948 c 0,-10.212 1.64,-19.355 4.875,-27.174 a 57.493,57.493 0 0 1 13.359,-19.867 56.576,56.576 0 0 1 19.473,-12.141 66.392,66.392 0 0 1 23.143,-4.063 77.342,77.342 0 0 1 19.847,2.436 64.976,64.976 0 0 1 15.684,6.177 l 0.847,0.488 -6.856,19.49 -1.229,-0.711 a 45.317,45.317 0 0 0 -7.616,-3.337 68.45,68.45 0 0 0 -9.567,-2.589 46.4,46.4 0 0 0 -8.716,-0.934 52.778,52.778 0 0 0 -17.56,2.724 35.447,35.447 0 0 0 -13.053,7.953 34.893,34.893 0 0 0 -8.259,12.741 48.187,48.187 0 0 0 -2.879,17.212 40.325,40.325 0 0 0 3.022,15.818 35.908,35.908 0 0 0 8.417,12.211 36.827,36.827 0 0 0 13,7.8 49.972,49.972 0 0 0 16.837,2.724 56.009,56.009 0 0 0 10.314,-0.934 28.32,28.32 0 0 0 7.824,-2.575 v -17.44 h -21.86 v -20.215 h 42.875 v 49.369 l -0.344,0.344 a 25.021,25.021 0 0 1 -6.95,4.537 83.509,83.509 0 0 1 -9.956,3.886 87.189,87.189 0 0 1 -11.323,2.831 62.5,62.5 0 0 1 -11.06,1.055 71.776,71.776 0 0 1 -25.712,-4.379 z m 732.424,3.111 -10.7,-27.285 h -40.788 l -11.227,27.285 h -20.749 l 0.692,-1.632 51.681,-121.668 h 2.672 l 7.981,18.8 0.985,-0.66 -0.623,1.506 44.032,103.656 z m -43.964,-45.59 h 26.078 l -12.731,-32.445 z m -77.359,45.59 v -49.467 h -54.777 v 49.467 h -21.022 v -118.513 h 21.022 v 48.988 h 54.774 v -48.988 h 20.855 V -261.7 Z m -273.657,0 v -118.513 h 79.418 v 20.22 h -58.4 v 28.605 h 52.018 v 20.22 h -52.018 v 29.247 h 60.63 v 20.22 z m -175.467,0 -10.7,-27.285 h -40.787 l -11.227,27.285 h -20.751 l 52.378,-123.3 h 2.667 l 7.987,18.8 0.984,-0.66 -0.624,1.506 44.033,103.656 z m -43.963,-45.59 h 26.078 l -12.733,-32.445 z"
         transform="translate(7913.507,1195.567)"
         style="fill:url(#linearGradient1008);fill-opacity:1;stroke:#000000;stroke-width:5;stroke-linecap:butt;stroke-linejoin:round;stroke-miterlimit:4;stroke-dasharray:none;stroke-opacity:1" />
      <path
         id="Path_919"
         data-name="Path 919"
         d="M 107.941,0 H 701.619 C 761.233,0 809.56,44.065 809.56,98.423 v 541.325 c 0,54.357 -48.327,98.423 -107.941,98.423 H 107.941 C 48.327,738.171 0,694.105 0,639.748 V 98.423 C 0,44.065 48.327,0 107.941,0 Z"
         transform="translate(0,0.833)"
         fill="url(#linear-gradient)"
         style="fill:url(#linearGradient23)" />
      <path
         id="Path_911"
         data-name="Path 911"
         d="m 1147.434,-399.16 c -2.624,-0.142 -47.283,-3.287 -74.067,-34.39 -26.571,-30.856 -25.834,-58.6 -25.789,-59.766 l -0.01,-548.974 c 0.019,-1.8 0.808,-41.5 31.848,-70.1 30.63,-28.227 74.122,-29.058 75.959,-29.079 H 1744.5 c 1.366,-0.069 47.0411,-1.964 79.6351,27.522 32.672,29.557 32.9249,64.399 32.9859,65.851 l 0.01,241.924 c -0.136,3.757 -1.726,33.234 -18.051,50.473 -16.845,17.787 -42.26,23.374 -79.11,29.869 -42.725,7.53 -74.367,3.767 -112.853,-13.424 -74.152,-33.12 -117.172,-108.01 -118.966,-111.182 -3.1888,-5.63518 -1.2075,-12.78834 4.426,-15.98 5.6353,-3.19228 12.7912,-1.21701 15.991,4.414 0.4,0.711 41.155,71.413 108.119,101.323 34.2,15.276 61.091,18.458 99.211,11.74 36.906,-6.5 55.215,-11.354 66.145,-22.9 8.716,-9.2 11.353,-28.251 11.633,-34.813 l -0.01,-240.952 c -0.047,-0.491 -1.76,-25.87 -26.838,-48.557 -25.325,-22.911 -61.507,-21.867 -61.867,-21.856 l -589.445,0.01 c -0.2,0 -36.3,0.854 -60.195,22.87 -23.413,21.576 -24.28,52.711 -24.286,53.023 v 549.245 c -0.016,1.127 -0.057,20.585 20.114,44.008 20.408,23.7 56.658,26.236 57.022,26.259 l 201.907,-0.023 c 7.967,-1.479 36.679,-8.167 50.734,-19.323 14.892,-11.821 15.9,-31.376 15.905,-31.572 l -0.01,-119.594 c -0.1,0.312 -2.326,-11.495 -12.014,-20.146 -8.6,-7.679 -24.143,-9.99 -29.407,-10.233 -17.416,-2.341 -64.029,-6.137 -83.458,3.106 -17.839,8.486 -12.473,32.631 -12.236,33.655 1.461,6.29478 -2.4308,12.5891 -8.715,14.095 -6.2715,1.50147 -12.5761,-2.35196 -14.1,-8.618 -3.646,-15.021 -3.118,-46.959 24.973,-60.322 29.227,-13.9 88.934,-6.186 95.646,-5.26 1.649,0.011 26.513,1.415 42.928,16.075 10.4433,9.43441 17.4007,22.11435 19.748,35.991 l 0.1,121.676 c -0.042,1.587 -1.185,30.8 -24.774,49.526 -21.727,17.246 -61.728,23.976 -63.421,24.254 z"
         transform="translate(-1047.535,1141.504)"
         sodipodi:nodetypes="csccccccccccccccscccccccccccccccccccccccccccccc" />
      <path
         id="Path_921"
         data-name="Path 921"
         d="M 26.985,0 A 26.985,26.985 0 1 1 0,26.985 26.985,26.985 0 0 1 26.985,0 Z"
         transform="translate(237.589,315.177)" />
      <path
         id="Path_912"
         data-name="Path 912"
         d="M 404.6,-1078.993 H 291.345 a 7.04,7.04 0 0 1 -7.04,-7.04 7.04,7.04 0 0 1 7.04,-7.04 H 404.6 a 7.04,7.04 0 0 1 7.04,7.04 7.04,7.04 0 0 1 -7.04,7.04 z"
         transform="translate(-266.727,1380.213)" />
      <path
         id="Path_913"
         data-name="Path 913"
         d="m 380.63,-1078.993 h -89.285 a 7.04,7.04 0 0 1 -7.04,-7.04 7.04,7.04 0 0 1 7.04,-7.04 h 89.285 a 7.04,7.04 0 0 1 7.04,7.04 7.04,7.04 0 0 1 -7.04,7.04 z"
         transform="translate(-266.727,1441.499)" />
      <path
         id="Path_914"
         data-name="Path 914"
         d="m 360.973,-1078.993 h -69.628 a 7.04,7.04 0 0 1 -7.04,-7.04 7.04,7.04 0 0 1 7.04,-7.04 h 69.628 a 7.04,7.04 0 0 1 7.04,7.04 7.04,7.04 0 0 1 -7.04,7.04 z"
         transform="translate(-266.727,1502.786)" />
    </g>
  </g>
</svg>
